<svg width="22" height="22" viewBox="0 0 22 22" fill="none" xmlns="http://www.w3.org/2000/svg">
<g clip-path="url(#clip0_38_358)">
<path d="M17.7289 5.82461L7.65033 3.12407C6.85516 2.91101 6.03782 3.3829 5.82475 4.17807L3.12422 14.2566C2.91115 15.0518 3.38304 15.8691 4.17822 16.0822L14.2568 18.7827C15.0519 18.9958 15.8693 18.5239 16.0823 17.7287L18.7829 7.65019C18.9959 6.85501 18.524 6.03767 17.7289 5.82461Z" stroke="white" stroke-width="1.71817" stroke-linecap="round" stroke-linejoin="round"/>
<path d="M10.4782 6.96813L8.31854 6.38944L6.58248 12.8685L8.74217 13.4472L10.4782 6.96813Z" stroke="white" stroke-width="1.71817" stroke-linecap="round" stroke-linejoin="round"/>
<path d="M15.5175 8.3184L13.3578 7.73971L12.3933 11.3392L14.553 11.9179L15.5175 8.3184Z" stroke="white" stroke-width="1.71817" stroke-linecap="round" stroke-linejoin="round"/>
</g>
<defs>
<clipPath id="clip0_38_358">
<rect width="17.887" height="17.887" fill="white" transform="translate(4.62949) rotate(15)"/>
</clipPath>
</defs>
</svg>
